<svg xmlns="http://www.w3.org/2000/svg" width="120" height="120" viewBox="0 0 120 120" fill="none">
  <g opacity="0.8" filter="url(#filter0_f_140_57)">
    <path opacity="0.8" d="M59.9999 89.1667C76.1082 89.1667 89.1666 76.1083 89.1666 60C89.1666 43.8917 76.1082 30.8333 59.9999 30.8333C43.8916 30.8333 30.8333 43.8917 30.8333 60C30.8333 76.1083 43.8916 89.1667 59.9999 89.1667Z" fill="url(#paint0_linear_140_57)"/>
    <path opacity="0.3" d="M60.0001 37.3958C55.0709 37.3958 50.3751 38.9709 46.4376 41.9167C45.4751 42.6459 45.2709 44.0167 46.0001 44.9792C46.7293 45.9417 48.1001 46.1458 49.0626 45.4167C52.2417 43.025 56.0042 41.7708 60.0001 41.7708C70.0626 41.7708 78.2292 49.9375 78.2292 60C78.2292 70.0625 70.0626 78.2292 60.0001 78.2292C49.9376 78.2292 41.7709 70.0625 41.7709 60C41.7709 57.55 42.2667 55.1292 43.2 52.8833L46.5251 54.7792C45.8834 56.4417 45.5334 58.1917 45.5334 60C45.5334 67.9625 52.0084 74.4375 59.9709 74.4375C67.9334 74.4375 74.4084 67.9625 74.4084 60C74.4084 52.0375 67.9334 45.5625 59.9709 45.5625C57.8125 45.5625 55.7417 46.0292 53.8167 46.9334C52.7376 47.4584 52.2417 48.7417 52.7667 49.85C53.2917 50.9292 54.575 51.3959 55.6834 50.9C57.025 50.2584 58.4542 49.9375 59.9709 49.9375C65.5125 49.9375 70.0334 54.4583 70.0334 60C70.0334 65.5417 65.5125 70.0625 59.9709 70.0625C54.4292 70.0625 49.9084 65.5417 49.9084 60C49.9084 58.9792 50.1125 57.9875 50.4042 57.025L58.8917 61.8958C59.9417 62.5083 61.2834 62.1292 61.8668 61.0792C62.4793 60.0292 62.1 58.6875 61.05 58.1042L43.3459 47.925C42.2959 47.3125 40.9542 47.6917 40.3709 48.7417C38.4167 52.1542 37.3667 56.0333 37.3667 60C37.3667 72.4542 47.5167 82.6042 59.9709 82.6042C72.425 82.6042 82.575 72.4542 82.575 60C82.575 47.5458 72.4542 37.3958 60.0001 37.3958Z" fill="url(#paint1_linear_140_57)"/>
  </g>
  <g opacity="0.8" filter="url(#filter1_d_140_57)">
    <path opacity="0.8" d="M53.9999 86.1667C70.1082 86.1667 83.1666 73.1083 83.1666 57C83.1666 40.8917 70.1082 27.8333 53.9999 27.8333C37.8916 27.8333 24.8333 40.8917 24.8333 57C24.8333 73.1083 37.8916 86.1667 53.9999 86.1667Z" fill="url(#paint2_linear_140_57)"/>
    <path d="M54.0001 34.3958C49.0709 34.3958 44.3751 35.9709 40.4376 38.9167C39.4751 39.6459 39.2709 41.0167 40.0001 41.9792C40.7293 42.9417 42.1001 43.1458 43.0626 42.4167C46.2417 40.025 50.0042 38.7708 54.0001 38.7708C64.0626 38.7708 72.2292 46.9375 72.2292 57C72.2292 67.0625 64.0626 75.2292 54.0001 75.2292C43.9376 75.2292 35.7709 67.0625 35.7709 57C35.7709 54.55 36.2667 52.1292 37.2 49.8833L40.5251 51.7792C39.8834 53.4417 39.5334 55.1917 39.5334 57C39.5334 64.9625 46.0084 71.4375 53.9709 71.4375C61.9334 71.4375 68.4084 64.9625 68.4084 57C68.4084 49.0375 61.9334 42.5625 53.9709 42.5625C51.8125 42.5625 49.7417 43.0292 47.8167 43.9334C46.7376 44.4584 46.2417 45.7417 46.7667 46.85C47.2917 47.9292 48.575 48.3959 49.6834 47.9C51.025 47.2584 52.4542 46.9375 53.9709 46.9375C59.5125 46.9375 64.0334 51.4583 64.0334 57C64.0334 62.5417 59.5125 67.0625 53.9709 67.0625C48.4292 67.0625 43.9084 62.5417 43.9084 57C43.9084 55.9792 44.1125 54.9875 44.4042 54.025L52.8917 58.8958C53.9417 59.5083 55.2834 59.1292 55.8668 58.0792C56.4793 57.0292 56.1 55.6875 55.05 55.1042L37.3459 44.925C36.2959 44.3125 34.9542 44.6917 34.3709 45.7417C32.4167 49.1542 31.3667 53.0333 31.3667 57C31.3667 69.4542 41.5167 79.6042 53.9709 79.6042C66.425 79.6042 76.575 69.4542 76.575 57C76.575 44.5458 66.4542 34.3958 54.0001 34.3958Z" fill="url(#paint3_linear_140_57)"/>
  </g>
  <g opacity="0.8" filter="url(#filter2_d_140_57)">
    <path opacity="0.8" d="M53.9999 86.1667C70.1082 86.1667 83.1666 73.1083 83.1666 57C83.1666 40.8917 70.1082 27.8333 53.9999 27.8333C37.8916 27.8333 24.8333 40.8917 24.8333 57C24.8333 73.1083 37.8916 86.1667 53.9999 86.1667Z" fill="url(#paint4_linear_140_57)"/>
    <path d="M54.0001 34.3958C49.0709 34.3958 44.3751 35.9709 40.4376 38.9167C39.4751 39.6459 39.2709 41.0167 40.0001 41.9792C40.7293 42.9417 42.1001 43.1458 43.0626 42.4167C46.2417 40.025 50.0042 38.7708 54.0001 38.7708C64.0626 38.7708 72.2292 46.9375 72.2292 57C72.2292 67.0625 64.0626 75.2292 54.0001 75.2292C43.9376 75.2292 35.7709 67.0625 35.7709 57C35.7709 54.55 36.2667 52.1292 37.2 49.8833L40.5251 51.7792C39.8834 53.4417 39.5334 55.1917 39.5334 57C39.5334 64.9625 46.0084 71.4375 53.9709 71.4375C61.9334 71.4375 68.4084 64.9625 68.4084 57C68.4084 49.0375 61.9334 42.5625 53.9709 42.5625C51.8125 42.5625 49.7417 43.0292 47.8167 43.9334C46.7376 44.4584 46.2417 45.7417 46.7667 46.85C47.2917 47.9292 48.575 48.3959 49.6834 47.9C51.025 47.2584 52.4542 46.9375 53.9709 46.9375C59.5125 46.9375 64.0334 51.4583 64.0334 57C64.0334 62.5417 59.5125 67.0625 53.9709 67.0625C48.4292 67.0625 43.9084 62.5417 43.9084 57C43.9084 55.9792 44.1125 54.9875 44.4042 54.025L52.8917 58.8958C53.9417 59.5083 55.2834 59.1292 55.8668 58.0792C56.4793 57.0292 56.1 55.6875 55.05 55.1042L37.3459 44.925C36.2959 44.3125 34.9542 44.6917 34.3709 45.7417C32.4167 49.1542 31.3667 53.0333 31.3667 57C31.3667 69.4542 41.5167 79.6042 53.9709 79.6042C66.425 79.6042 76.575 69.4542 76.575 57C76.575 44.5458 66.4542 34.3958 54.0001 34.3958Z" fill="url(#paint5_linear_140_57)"/>
  </g>
  <defs>
    <filter id="filter0_f_140_57" x="0.833252" y="0.833344" width="118.333" height="118.333" filterUnits="userSpaceOnUse" color-interpolation-filters="sRGB">
      <feFlood flood-opacity="0" result="BackgroundImageFix"/>
      <feBlend mode="normal" in="SourceGraphic" in2="BackgroundImageFix" result="shape"/>
      <feGaussianBlur stdDeviation="15" result="effect1_foregroundBlur_140_57"/>
    </filter>
    <filter id="filter1_d_140_57" x="21.8333" y="23.8333" width="66.3333" height="66.3333" filterUnits="userSpaceOnUse" color-interpolation-filters="sRGB">
      <feFlood flood-opacity="0" result="BackgroundImageFix"/>
      <feColorMatrix in="SourceAlpha" type="matrix" values="0 0 0 0 0 0 0 0 0 0 0 0 0 0 0 0 0 0 127 0" result="hardAlpha"/>
      <feOffset dx="1"/>
      <feGaussianBlur stdDeviation="2"/>
      <feComposite in2="hardAlpha" operator="out"/>
      <feColorMatrix type="matrix" values="0 0 0 0 0 0 0 0 0 0 0 0 0 0 0 0 0 0 0.15 0"/>
      <feBlend mode="normal" in2="BackgroundImageFix" result="effect1_dropShadow_140_57"/>
      <feBlend mode="normal" in="SourceGraphic" in2="effect1_dropShadow_140_57" result="shape"/>
    </filter>
    <filter id="filter2_d_140_57" x="21.8333" y="23.8333" width="66.3333" height="66.3333" filterUnits="userSpaceOnUse" color-interpolation-filters="sRGB">
      <feFlood flood-opacity="0" result="BackgroundImageFix"/>
      <feColorMatrix in="SourceAlpha" type="matrix" values="0 0 0 0 0 0 0 0 0 0 0 0 0 0 0 0 0 0 127 0" result="hardAlpha"/>
      <feOffset dx="1"/>
      <feGaussianBlur stdDeviation="2"/>
      <feComposite in2="hardAlpha" operator="out"/>
      <feColorMatrix type="matrix" values="0 0 0 0 0 0 0 0 0 0 0 0 0 0 0 0 0 0 0.15 0"/>
      <feBlend mode="normal" in2="BackgroundImageFix" result="effect1_dropShadow_140_57"/>
      <feBlend mode="normal" in="SourceGraphic" in2="effect1_dropShadow_140_57" result="shape"/>
    </filter>
    <linearGradient id="paint0_linear_140_57" x1="29.4999" y1="33.5" x2="107" y2="123.5" gradientUnits="userSpaceOnUse">
      <stop offset="0.0953561" stop-color="#FFB400"/>
      <stop offset="0.832021" stop-color="#FED166" stop-opacity="0.4"/>
    </linearGradient>
    <linearGradient id="paint1_linear_140_57" x1="40.0001" y1="33" x2="100.5" y2="102.5" gradientUnits="userSpaceOnUse">
      <stop offset="0.0926347" stop-color="white"/>
      <stop offset="0.663965" stop-color="white" stop-opacity="0.5"/>
    </linearGradient>
    <linearGradient id="paint2_linear_140_57" x1="23.4999" y1="30.5" x2="101" y2="120.5" gradientUnits="userSpaceOnUse">
      <stop offset="0.0953561" stop-color="#FFB400"/>
      <stop offset="0.832021" stop-color="#FED166" stop-opacity="0.4"/>
    </linearGradient>
    <linearGradient id="paint3_linear_140_57" x1="34.0001" y1="30" x2="94.5001" y2="99.5" gradientUnits="userSpaceOnUse">
      <stop offset="0.0926347" stop-color="white"/>
      <stop offset="0.663965" stop-color="white" stop-opacity="0.5"/>
    </linearGradient>
    <linearGradient id="paint4_linear_140_57" x1="23.4999" y1="30.5" x2="101" y2="120.5" gradientUnits="userSpaceOnUse">
      <stop offset="0.0953561" stop-color="#FFB400"/>
      <stop offset="0.832021" stop-color="#FED166" stop-opacity="0.4"/>
    </linearGradient>
    <linearGradient id="paint5_linear_140_57" x1="34.0001" y1="30" x2="94.5001" y2="99.5" gradientUnits="userSpaceOnUse">
      <stop offset="0.0926347" stop-color="white"/>
      <stop offset="0.566538" stop-color="white" stop-opacity="0.5"/>
    </linearGradient>
  </defs>
</svg>