<svg xmlns="http://www.w3.org/2000/svg" width="113" height="120" viewBox="0 0 113 120" fill="none">
  <g opacity="0.8" filter="url(#filter0_f_140_29)">
    <g opacity="0.8" filter="url(#filter1_d_140_29)">
      <path d="M58.7305 32.3499L58.6498 32.5541L50.8421 52.1833H43.169C41.3382 52.1833 39.6151 52.5624 37.9998 53.3208L42.7113 41.1291L42.819 40.8666L42.9805 40.3999C43.0613 40.1958 43.1151 40.0208 43.1959 39.8749C46.7228 31.0374 50.7074 29.0249 58.7305 32.3499Z" fill="url(#paint0_linear_140_29)" shape-rendering="crispEdges"/>
    </g>
    <g filter="url(#filter2_b_140_29)">
      <path d="M73.2423 52.7666C72.0308 52.3874 70.7654 52.1833 69.4461 52.1833H50.8423L58.65 32.5541L58.7307 32.3499C59.1077 32.4958 59.5115 32.6999 59.9154 32.8458L65.8654 35.5583C69.1769 37.0458 71.4923 38.5916 72.9192 40.4583C73.1615 40.8083 73.3769 41.1291 73.5923 41.5083C73.8346 41.9166 74.0231 42.3249 74.1308 42.7624C74.2384 43.0249 74.3192 43.2583 74.3731 43.5208C75.0731 45.9999 74.6423 49.0041 73.2423 52.7666Z" fill="url(#paint1_linear_140_29)"/>
    </g>
    <g filter="url(#filter3_bd_140_29)">
      <path d="M82.5846 66.4167V72.1042C82.5846 72.6875 82.5577 73.2709 82.5308 73.825C82.0192 84.0334 76.7692 89.1667 66.8077 89.1667H45.8077C45.1346 89.1667 44.5154 89.1084 43.8961 89.0209C35.3346 88.4084 30.7577 83.45 30.1654 74.175C30.0846 73.475 30.0308 72.8042 30.0308 72.1042V66.4167C30.0308 60.5542 33.3154 55.5084 38 53.3209C39.6154 52.5625 41.3385 52.1834 43.1692 52.1834H69.4461C70.7654 52.1834 72.0308 52.3875 73.2423 52.7667C78.6269 54.5459 82.5846 59.9709 82.5846 66.4167Z" fill="url(#paint2_linear_140_29)" shape-rendering="crispEdges"/>
    </g>
    <path opacity="0.6" d="M42.7115 41.1292L38 53.3209C33.3154 55.5084 30.0308 60.5542 30.0308 66.4167V57.8709C30.0308 49.5875 35.4692 42.675 42.7115 41.1292Z" fill="url(#paint3_linear_140_29)"/>
    <path opacity="0.6" d="M82.5847 57.8708V66.4167C82.5847 59.9708 78.627 54.5458 73.2424 52.7667C74.6424 49.0042 75.0732 46 74.3732 43.5208C74.3193 43.2583 74.2386 43.025 74.1309 42.7625C79.1655 45.5917 82.5847 51.3375 82.5847 57.8708Z" fill="url(#paint4_linear_140_29)"/>
    <path d="M63.0384 67.8459H58.3268V62.9167C58.3268 61.7209 57.4115 60.7292 56.3076 60.7292C55.2038 60.7292 54.2884 61.7209 54.2884 62.9167V67.8459H49.5768C48.473 67.8459 47.5576 68.8375 47.5576 70.0334C47.5576 71.2292 48.473 72.2209 49.5768 72.2209H54.2884V77.5C54.2884 78.6959 55.2038 79.6875 56.3076 79.6875C57.4115 79.6875 58.3268 78.6959 58.3268 77.5V72.2209H63.0384C64.1422 72.2209 65.0576 71.2292 65.0576 70.0334C65.0576 68.8375 64.1422 67.8459 63.0384 67.8459Z" fill="url(#paint5_linear_140_29)"/>
  </g>
  <g opacity="0.8" filter="url(#filter4_d_140_29)">
    <path d="M58.7305 32.3499L58.6498 32.5541L50.8421 52.1833H43.169C41.3382 52.1833 39.6151 52.5624 37.9998 53.3208L42.7113 41.1291L42.819 40.8666L42.9805 40.3999C43.0613 40.1958 43.1151 40.0208 43.1959 39.8749C46.7228 31.0374 50.7074 29.0249 58.7305 32.3499Z" fill="url(#paint6_linear_140_29)" shape-rendering="crispEdges"/>
  </g>
  <g filter="url(#filter5_b_140_29)">
    <path d="M73.2423 52.7666C72.0308 52.3874 70.7654 52.1833 69.4461 52.1833H50.8423L58.65 32.5541L58.7307 32.3499C59.1077 32.4958 59.5115 32.6999 59.9154 32.8458L65.8654 35.5583C69.1769 37.0458 71.4923 38.5916 72.9192 40.4583C73.1615 40.8083 73.3769 41.1291 73.5923 41.5083C73.8346 41.9166 74.0231 42.3249 74.1308 42.7624C74.2384 43.0249 74.3192 43.2583 74.3731 43.5208C75.0731 45.9999 74.6423 49.0041 73.2423 52.7666Z" fill="url(#paint7_linear_140_29)"/>
  </g>
  <g filter="url(#filter6_bd_140_29)">
    <path d="M82.5846 66.4167V72.1042C82.5846 72.6875 82.5577 73.2709 82.5308 73.825C82.0192 84.0334 76.7692 89.1667 66.8077 89.1667H45.8077C45.1346 89.1667 44.5154 89.1084 43.8961 89.0209C35.3346 88.4084 30.7577 83.45 30.1654 74.175C30.0846 73.475 30.0308 72.8042 30.0308 72.1042V66.4167C30.0308 60.5542 33.3154 55.5084 38 53.3209C39.6154 52.5625 41.3385 52.1834 43.1692 52.1834H69.4461C70.7654 52.1834 72.0308 52.3875 73.2423 52.7667C78.6269 54.5459 82.5846 59.9709 82.5846 66.4167Z" fill="url(#paint8_linear_140_29)" shape-rendering="crispEdges"/>
  </g>
  <path opacity="0.6" d="M42.7115 41.1292L38 53.3209C33.3154 55.5084 30.0308 60.5542 30.0308 66.4167V57.8709C30.0308 49.5875 35.4692 42.675 42.7115 41.1292Z" fill="url(#paint9_linear_140_29)"/>
  <path opacity="0.6" d="M82.5847 57.8708V66.4167C82.5847 59.9708 78.627 54.5458 73.2424 52.7667C74.6424 49.0042 75.0732 46 74.3732 43.5208C74.3193 43.2583 74.2386 43.025 74.1309 42.7625C79.1655 45.5917 82.5847 51.3375 82.5847 57.8708Z" fill="url(#paint10_linear_140_29)"/>
  <path d="M63.0384 67.8459H58.3268V62.9167C58.3268 61.7209 57.4115 60.7292 56.3076 60.7292C55.2038 60.7292 54.2884 61.7209 54.2884 62.9167V67.8459H49.5768C48.473 67.8459 47.5576 68.8375 47.5576 70.0334C47.5576 71.2292 48.473 72.2209 49.5768 72.2209H54.2884V77.5C54.2884 78.6959 55.2038 79.6875 56.3076 79.6875C57.4115 79.6875 58.3268 78.6959 58.3268 77.5V72.2209H63.0384C64.1422 72.2209 65.0576 71.2292 65.0576 70.0334C65.0576 68.8375 64.1422 67.8459 63.0384 67.8459Z" fill="url(#paint11_linear_140_29)"/>
  <g opacity="0.5" filter="url(#filter7_d_140_29)">
    <g opacity="0.8" filter="url(#filter8_d_140_29)">
      <path d="M58.7305 32.3499L58.6498 32.5541L50.8421 52.1833H43.169C41.3382 52.1833 39.6151 52.5624 37.9998 53.3208L42.7113 41.1291L42.819 40.8666L42.9805 40.3999C43.0613 40.1958 43.1151 40.0208 43.1959 39.8749C46.7228 31.0374 50.7074 29.0249 58.7305 32.3499Z" fill="url(#paint12_linear_140_29)" shape-rendering="crispEdges"/>
    </g>
    <g filter="url(#filter9_b_140_29)">
      <path d="M73.2423 52.7666C72.0308 52.3874 70.7654 52.1833 69.4461 52.1833H50.8423L58.65 32.5541L58.7307 32.3499C59.1077 32.4958 59.5115 32.6999 59.9154 32.8458L65.8654 35.5583C69.1769 37.0458 71.4923 38.5916 72.9192 40.4583C73.1615 40.8083 73.3769 41.1291 73.5923 41.5083C73.8346 41.9166 74.0231 42.3249 74.1308 42.7624C74.2384 43.0249 74.3192 43.2583 74.3731 43.5208C75.0731 45.9999 74.6423 49.0041 73.2423 52.7666Z" fill="url(#paint13_linear_140_29)"/>
    </g>
    <g filter="url(#filter10_bd_140_29)">
      <path d="M82.5846 66.4167V72.1042C82.5846 72.6875 82.5577 73.2709 82.5308 73.825C82.0192 84.0334 76.7692 89.1667 66.8077 89.1667H45.8077C45.1346 89.1667 44.5154 89.1084 43.8961 89.0209C35.3346 88.4084 30.7577 83.45 30.1654 74.175C30.0846 73.475 30.0308 72.8042 30.0308 72.1042V66.4167C30.0308 60.5542 33.3154 55.5084 38 53.3209C39.6154 52.5625 41.3385 52.1834 43.1692 52.1834H69.4461C70.7654 52.1834 72.0308 52.3875 73.2423 52.7667C78.6269 54.5459 82.5846 59.9709 82.5846 66.4167Z" fill="url(#paint14_linear_140_29)" shape-rendering="crispEdges"/>
    </g>
    <path opacity="0.6" d="M42.7115 41.1292L38 53.3209C33.3154 55.5084 30.0308 60.5542 30.0308 66.4167V57.8709C30.0308 49.5875 35.4692 42.675 42.7115 41.1292Z" fill="url(#paint15_linear_140_29)"/>
    <path opacity="0.6" d="M82.5847 57.8708V66.4167C82.5847 59.9708 78.627 54.5458 73.2424 52.7667C74.6424 49.0042 75.0732 46 74.3732 43.5208C74.3193 43.2583 74.2386 43.025 74.1309 42.7625C79.1655 45.5917 82.5847 51.3375 82.5847 57.8708Z" fill="url(#paint16_linear_140_29)"/>
    <path d="M63.0384 67.8459H58.3268V62.9167C58.3268 61.7209 57.4115 60.7292 56.3076 60.7292C55.2038 60.7292 54.2884 61.7209 54.2884 62.9167V67.8459H49.5768C48.473 67.8459 47.5576 68.8375 47.5576 70.0334C47.5576 71.2292 48.473 72.2209 49.5768 72.2209H54.2884V77.5C54.2884 78.6959 55.2038 79.6875 56.3076 79.6875C57.4115 79.6875 58.3268 78.6959 58.3268 77.5V72.2209H63.0384C64.1422 72.2209 65.0576 71.2292 65.0576 70.0334C65.0576 68.8375 64.1422 67.8459 63.0384 67.8459Z" fill="url(#paint17_linear_140_29)"/>
  </g>
  <defs>
    <filter id="filter0_f_140_29" x="0.0307617" y="0.838715" width="112.554" height="118.328" filterUnits="userSpaceOnUse" color-interpolation-filters="sRGB">
      <feFlood flood-opacity="0" result="BackgroundImageFix"/>
      <feBlend mode="normal" in="SourceGraphic" in2="BackgroundImageFix" result="shape"/>
      <feGaussianBlur stdDeviation="15" result="effect1_foregroundBlur_140_29"/>
    </filter>
    <filter id="filter1_d_140_29" x="32.9998" y="26.8387" width="30.7307" height="32.4821" filterUnits="userSpaceOnUse" color-interpolation-filters="sRGB">
      <feFlood flood-opacity="0" result="BackgroundImageFix"/>
      <feColorMatrix in="SourceAlpha" type="matrix" values="0 0 0 0 0 0 0 0 0 0 0 0 0 0 0 0 0 0 127 0" result="hardAlpha"/>
      <feOffset dy="1"/>
      <feGaussianBlur stdDeviation="2.5"/>
      <feComposite in2="hardAlpha" operator="out"/>
      <feColorMatrix type="matrix" values="0 0 0 0 0 0 0 0 0 0 0 0 0 0 0 0 0 0 0.1 0"/>
      <feBlend mode="normal" in2="BackgroundImageFix" result="effect1_dropShadow_140_29"/>
      <feBlend mode="normal" in="SourceGraphic" in2="effect1_dropShadow_140_29" result="shape"/>
    </filter>
    <filter id="filter2_b_140_29" x="30.8423" y="12.3499" width="63.8608" height="60.4167" filterUnits="userSpaceOnUse" color-interpolation-filters="sRGB">
      <feFlood flood-opacity="0" result="BackgroundImageFix"/>
      <feGaussianBlur in="BackgroundImageFix" stdDeviation="10"/>
      <feComposite in2="SourceAlpha" operator="in" result="effect1_backgroundBlur_140_29"/>
      <feBlend mode="normal" in="SourceGraphic" in2="effect1_backgroundBlur_140_29" result="shape"/>
    </filter>
    <filter id="filter3_bd_140_29" x="-19.9692" y="2.18338" width="152.554" height="136.983" filterUnits="userSpaceOnUse" color-interpolation-filters="sRGB">
      <feFlood flood-opacity="0" result="BackgroundImageFix"/>
      <feGaussianBlur in="BackgroundImageFix" stdDeviation="25"/>
      <feComposite in2="SourceAlpha" operator="in" result="effect1_backgroundBlur_140_29"/>
      <feColorMatrix in="SourceAlpha" type="matrix" values="0 0 0 0 0 0 0 0 0 0 0 0 0 0 0 0 0 0 127 0" result="hardAlpha"/>
      <feOffset dx="1"/>
      <feGaussianBlur stdDeviation="2"/>
      <feComposite in2="hardAlpha" operator="out"/>
      <feColorMatrix type="matrix" values="0 0 0 0 0 0 0 0 0 0 0 0 0 0 0 0 0 0 0.15 0"/>
      <feBlend mode="normal" in2="effect1_backgroundBlur_140_29" result="effect2_dropShadow_140_29"/>
      <feBlend mode="normal" in="SourceGraphic" in2="effect2_dropShadow_140_29" result="shape"/>
    </filter>
    <filter id="filter4_d_140_29" x="32.9998" y="26.8387" width="30.7307" height="32.4821" filterUnits="userSpaceOnUse" color-interpolation-filters="sRGB">
      <feFlood flood-opacity="0" result="BackgroundImageFix"/>
      <feColorMatrix in="SourceAlpha" type="matrix" values="0 0 0 0 0 0 0 0 0 0 0 0 0 0 0 0 0 0 127 0" result="hardAlpha"/>
      <feOffset dy="1"/>
      <feGaussianBlur stdDeviation="2.5"/>
      <feComposite in2="hardAlpha" operator="out"/>
      <feColorMatrix type="matrix" values="0 0 0 0 0 0 0 0 0 0 0 0 0 0 0 0 0 0 0.1 0"/>
      <feBlend mode="normal" in2="BackgroundImageFix" result="effect1_dropShadow_140_29"/>
      <feBlend mode="normal" in="SourceGraphic" in2="effect1_dropShadow_140_29" result="shape"/>
    </filter>
    <filter id="filter5_b_140_29" x="30.8423" y="12.3499" width="63.8608" height="60.4167" filterUnits="userSpaceOnUse" color-interpolation-filters="sRGB">
      <feFlood flood-opacity="0" result="BackgroundImageFix"/>
      <feGaussianBlur in="BackgroundImageFix" stdDeviation="10"/>
      <feComposite in2="SourceAlpha" operator="in" result="effect1_backgroundBlur_140_29"/>
      <feBlend mode="normal" in="SourceGraphic" in2="effect1_backgroundBlur_140_29" result="shape"/>
    </filter>
    <filter id="filter6_bd_140_29" x="-19.9692" y="2.18338" width="152.554" height="136.983" filterUnits="userSpaceOnUse" color-interpolation-filters="sRGB">
      <feFlood flood-opacity="0" result="BackgroundImageFix"/>
      <feGaussianBlur in="BackgroundImageFix" stdDeviation="25"/>
      <feComposite in2="SourceAlpha" operator="in" result="effect1_backgroundBlur_140_29"/>
      <feColorMatrix in="SourceAlpha" type="matrix" values="0 0 0 0 0 0 0 0 0 0 0 0 0 0 0 0 0 0 127 0" result="hardAlpha"/>
      <feOffset dx="1"/>
      <feGaussianBlur stdDeviation="2"/>
      <feComposite in2="hardAlpha" operator="out"/>
      <feColorMatrix type="matrix" values="0 0 0 0 0 0 0 0 0 0 0 0 0 0 0 0 0 0 0.15 0"/>
      <feBlend mode="normal" in2="effect1_backgroundBlur_140_29" result="effect2_dropShadow_140_29"/>
      <feBlend mode="normal" in="SourceGraphic" in2="effect2_dropShadow_140_29" result="shape"/>
    </filter>
    <filter id="filter7_d_140_29" x="22.0308" y="23.8387" width="68.554" height="74.328" filterUnits="userSpaceOnUse" color-interpolation-filters="sRGB">
      <feFlood flood-opacity="0" result="BackgroundImageFix"/>
      <feColorMatrix in="SourceAlpha" type="matrix" values="0 0 0 0 0 0 0 0 0 0 0 0 0 0 0 0 0 0 127 0" result="hardAlpha"/>
      <feOffset dy="1"/>
      <feGaussianBlur stdDeviation="4"/>
      <feComposite in2="hardAlpha" operator="out"/>
      <feColorMatrix type="matrix" values="0 0 0 0 0 0 0 0 0 0 0 0 0 0 0 0 0 0 0.05 0"/>
      <feBlend mode="normal" in2="BackgroundImageFix" result="effect1_dropShadow_140_29"/>
      <feBlend mode="normal" in="SourceGraphic" in2="effect1_dropShadow_140_29" result="shape"/>
    </filter>
    <filter id="filter8_d_140_29" x="32.9998" y="26.8387" width="30.7307" height="32.4821" filterUnits="userSpaceOnUse" color-interpolation-filters="sRGB">
      <feFlood flood-opacity="0" result="BackgroundImageFix"/>
      <feColorMatrix in="SourceAlpha" type="matrix" values="0 0 0 0 0 0 0 0 0 0 0 0 0 0 0 0 0 0 127 0" result="hardAlpha"/>
      <feOffset dy="1"/>
      <feGaussianBlur stdDeviation="2.5"/>
      <feComposite in2="hardAlpha" operator="out"/>
      <feColorMatrix type="matrix" values="0 0 0 0 0 0 0 0 0 0 0 0 0 0 0 0 0 0 0.1 0"/>
      <feBlend mode="normal" in2="BackgroundImageFix" result="effect1_dropShadow_140_29"/>
      <feBlend mode="normal" in="SourceGraphic" in2="effect1_dropShadow_140_29" result="shape"/>
    </filter>
    <filter id="filter9_b_140_29" x="30.8423" y="12.3499" width="63.8608" height="60.4167" filterUnits="userSpaceOnUse" color-interpolation-filters="sRGB">
      <feFlood flood-opacity="0" result="BackgroundImageFix"/>
      <feGaussianBlur in="BackgroundImageFix" stdDeviation="10"/>
      <feComposite in2="SourceAlpha" operator="in" result="effect1_backgroundBlur_140_29"/>
      <feBlend mode="normal" in="SourceGraphic" in2="effect1_backgroundBlur_140_29" result="shape"/>
    </filter>
    <filter id="filter10_bd_140_29" x="-19.9692" y="2.18338" width="152.554" height="136.983" filterUnits="userSpaceOnUse" color-interpolation-filters="sRGB">
      <feFlood flood-opacity="0" result="BackgroundImageFix"/>
      <feGaussianBlur in="BackgroundImageFix" stdDeviation="25"/>
      <feComposite in2="SourceAlpha" operator="in" result="effect1_backgroundBlur_140_29"/>
      <feColorMatrix in="SourceAlpha" type="matrix" values="0 0 0 0 0 0 0 0 0 0 0 0 0 0 0 0 0 0 127 0" result="hardAlpha"/>
      <feOffset dx="1"/>
      <feGaussianBlur stdDeviation="2"/>
      <feComposite in2="hardAlpha" operator="out"/>
      <feColorMatrix type="matrix" values="0 0 0 0 0 0 0 0 0 0 0 0 0 0 0 0 0 0 0.15 0"/>
      <feBlend mode="normal" in2="effect1_backgroundBlur_140_29" result="effect2_dropShadow_140_29"/>
      <feBlend mode="normal" in="SourceGraphic" in2="effect2_dropShadow_140_29" result="shape"/>
    </filter>
    <linearGradient id="paint0_linear_140_29" x1="42.4999" y1="23" x2="58.9999" y2="78.5" gradientUnits="userSpaceOnUse">
      <stop stop-color="#D39500"/>
      <stop offset="0.681267" stop-color="#FFB400" stop-opacity="0.6"/>
    </linearGradient>
    <linearGradient id="paint1_linear_140_29" x1="54.5" y1="25.5" x2="81" y2="69.5" gradientUnits="userSpaceOnUse">
      <stop offset="0.125998" stop-color="#FFB400"/>
      <stop offset="0.824573" stop-color="#FFE7AD" stop-opacity="0.4"/>
    </linearGradient>
    <linearGradient id="paint2_linear_140_29" x1="30" y1="50.5" x2="88" y2="94.5" gradientUnits="userSpaceOnUse">
      <stop offset="0.0576019" stop-color="#FEBE24"/>
      <stop offset="0.810791" stop-color="#FFDC8B" stop-opacity="0.4"/>
    </linearGradient>
    <linearGradient id="paint3_linear_140_29" x1="36" y1="38" x2="36" y2="83" gradientUnits="userSpaceOnUse">
      <stop offset="0.0431738" stop-color="#FFB500"/>
      <stop offset="0.6391" stop-color="#FFB400" stop-opacity="0.8"/>
    </linearGradient>
    <linearGradient id="paint4_linear_140_29" x1="78" y1="36.5" x2="78" y2="83.5" gradientUnits="userSpaceOnUse">
      <stop offset="0.100165" stop-color="#FFB500"/>
      <stop offset="0.676116" stop-color="#FFDB86" stop-opacity="0.8"/>
    </linearGradient>
    <linearGradient id="paint5_linear_140_29" x1="56.3076" y1="60.7292" x2="55.9999" y2="86.5" gradientUnits="userSpaceOnUse">
      <stop stop-color="#FFFDF7"/>
      <stop offset="0.775803" stop-color="#FFF8E7" stop-opacity="0.25"/>
    </linearGradient>
    <linearGradient id="paint6_linear_140_29" x1="42.4999" y1="23" x2="58.9999" y2="78.5" gradientUnits="userSpaceOnUse">
      <stop stop-color="#D39500"/>
      <stop offset="0.681267" stop-color="#FFB400" stop-opacity="0.6"/>
    </linearGradient>
    <linearGradient id="paint7_linear_140_29" x1="54.5" y1="25.5" x2="81" y2="69.5" gradientUnits="userSpaceOnUse">
      <stop offset="0.125998" stop-color="#FFB400"/>
      <stop offset="0.824573" stop-color="#FFE7AD" stop-opacity="0.4"/>
    </linearGradient>
    <linearGradient id="paint8_linear_140_29" x1="30" y1="50.5" x2="88" y2="94.5" gradientUnits="userSpaceOnUse">
      <stop offset="0.0576019" stop-color="#FEBE24"/>
      <stop offset="0.810791" stop-color="#FFDC8B" stop-opacity="0.4"/>
    </linearGradient>
    <linearGradient id="paint9_linear_140_29" x1="36" y1="38" x2="36" y2="83" gradientUnits="userSpaceOnUse">
      <stop offset="0.0431738" stop-color="#FFB500"/>
      <stop offset="0.6391" stop-color="#FFB400" stop-opacity="0.8"/>
    </linearGradient>
    <linearGradient id="paint10_linear_140_29" x1="78" y1="36.5" x2="78" y2="83.5" gradientUnits="userSpaceOnUse">
      <stop offset="0.100165" stop-color="#FFB500"/>
      <stop offset="0.676116" stop-color="#FFDB86" stop-opacity="0.8"/>
    </linearGradient>
    <linearGradient id="paint11_linear_140_29" x1="56.3076" y1="60.7292" x2="55.9999" y2="86.5" gradientUnits="userSpaceOnUse">
      <stop stop-color="#FFFDF7"/>
      <stop offset="0.775803" stop-color="#FFF8E7" stop-opacity="0.25"/>
    </linearGradient>
    <linearGradient id="paint12_linear_140_29" x1="42.4999" y1="23" x2="58.9999" y2="78.5" gradientUnits="userSpaceOnUse">
      <stop stop-color="#D39500"/>
      <stop offset="0.681267" stop-color="#FFB400" stop-opacity="0.6"/>
    </linearGradient>
    <linearGradient id="paint13_linear_140_29" x1="54.5" y1="25.5" x2="81" y2="69.5" gradientUnits="userSpaceOnUse">
      <stop offset="0.125998" stop-color="#FFB400"/>
      <stop offset="0.824573" stop-color="#FFE7AD" stop-opacity="0.4"/>
    </linearGradient>
    <linearGradient id="paint14_linear_140_29" x1="30" y1="50.5" x2="88" y2="94.5" gradientUnits="userSpaceOnUse">
      <stop offset="0.0576019" stop-color="#FEBE24"/>
      <stop offset="0.810791" stop-color="#FFDC8B" stop-opacity="0.4"/>
    </linearGradient>
    <linearGradient id="paint15_linear_140_29" x1="36" y1="38" x2="36" y2="83" gradientUnits="userSpaceOnUse">
      <stop offset="0.0431738" stop-color="#FFB500"/>
      <stop offset="0.6391" stop-color="#FFB400" stop-opacity="0.8"/>
    </linearGradient>
    <linearGradient id="paint16_linear_140_29" x1="78" y1="36.5" x2="78" y2="83.5" gradientUnits="userSpaceOnUse">
      <stop offset="0.100165" stop-color="#FFB500"/>
      <stop offset="0.676116" stop-color="#FFDB86" stop-opacity="0.8"/>
    </linearGradient>
    <linearGradient id="paint17_linear_140_29" x1="56.3076" y1="60.7292" x2="55.9999" y2="86.5" gradientUnits="userSpaceOnUse">
      <stop stop-color="#FFFDF7"/>
      <stop offset="0.775803" stop-color="#FFF8E7" stop-opacity="0.25"/>
    </linearGradient>
  </defs>
</svg>