<svg viewBox="0 0 24 24" xmlns="http://www.w3.org/2000/svg"><path d="m5.968 23.942a6.624 6.624 0 0 1 -2.332-.83c-1.62-.929-2.829-2.593-3.217-4.426-.151-.717-.17-1.623-.15-7.207.019-6.009.005-5.699.291-6.689.142-.493.537-1.34.823-1.767 1.055-1.57 2.607-2.578 4.53-2.943.384-.073.94-.08 6.056-.08 6.251 0 6.045-.009 7.066.314a6.807 6.807 0 0 1 4.314 4.184c.33.937.346 1.087.369 3.555l.02 2.23-.391.268c-.558.381-1.29 1.06-2.316 2.15-1.182 1.256-2.376 2.42-2.982 2.907-1.309 1.051-2.508 1.651-3.726 1.864-.634.11-1.682.067-2.302-.095-.553-.144-.517-.168-.726.464a6.355 6.355 0 0 0 -.318 1.546l-.031.407-.146-.03c-1.215-.241-2.419-1.285-2.884-2.5a3.583 3.583 0 0 1 -.26-1.219l-.016-.34-.309-.284c-.644-.59-1.063-1.312-1.195-2.061-.212-1.193.34-2.542 1.538-3.756 1.264-1.283 3.127-2.29 4.953-2.68.658-.14 1.818-.177 2.403-.075 1.138.198 2.067.773 2.645 1.639.182.271.195.31.177.555a.812.812 0 0 1 -.183.493c-.465.651-1.848 1.348-3.336 1.68-2.625.585-4.294-.142-4.033-1.759.026-.163.04-.304.031-.313-.032-.032-.293.104-.575.3-.479.334-.903.984-1.05 1.607-.036.156-.05.406-.034.65.02.331.053.454.192.736.092.186.275.45.408.589l.24.251-.096.122a4.845 4.845 0 0 0 -.677 1.217 3.635 3.635 0 0 0 -.105 1.815c.103.461.421 1.095.739 1.468.242.285.797.764.886.764.024 0 .044-.048.044-.106.001-.23.184-.973.326-1.327.423-1.058 1.351-1.96 2.82-2.74.245-.13.952-.47 1.572-.757 1.36-.63 2.103-1.015 2.511-1.305 1.176-.833 1.903-2.065 2.14-3.625.086-.57.086-1.634 0-2.207-.368-2.438-2.195-4.096-4.818-4.37-2.925-.307-6.648 1.953-8.942 5.427-1.116 1.69-1.87 3.565-2.187 5.443-.123.728-.169 2.08-.093 2.75.193 1.704.822 3.078 1.903 4.156a6.531 6.531 0 0 0 1.87 1.313c2.368 1.13 4.99 1.155 7.295.071.996-.469 1.974-1.196 3.023-2.25 1.02-1.025 1.71-1.88 3.592-4.458 1.04-1.423 1.864-2.368 2.272-2.605l.15-.086-.019 3.091c-.018 2.993-.022 3.107-.123 3.561-.6 2.678-2.54 4.636-5.195 5.242l-.468.107-5.775.01c-4.734.008-5.85-.002-6.19-.056z"/></svg>

<svg xmlns="http://www.w3.org/2000/svg" fill="none" viewBox="0 0 24 24" stroke-width="1.5" stroke="currentColor" class="w-6 h-6">
  <path stroke-linecap="round" stroke-linejoin="round" d="M4.26 10.147a60.436 60.436 0 00-.491 6.347A48.627 48.627 0 0112 20.904a48.627 48.627 0 018.232-4.41 60.46 60.46 0 00-.491-6.347m-15.482 0a50.57 50.57 0 00-2.658-.813A59.905 59.905 0 0112 3.493a59.902 59.902 0 0110.399 5.84c-.896.248-1.783.52-2.658.814m-15.482 0A50.697 50.697 0 0112 13.489a50.702 50.702 0 017.74-3.342M6.75 15a.75.75 0 100-1.5.75.75 0 000 1.5zm0 0v-3.675A55.378 55.378 0 0112 8.443m-7.007 11.55A5.981 5.981 0 006.75 15.75v-1.5" />
</svg>

<svg xmlns="http://www.w3.org/2000/svg" viewBox="0 0 24 24" fill="currentColor" class="w-6 h-6">
  <path d="M11.7 2.805a.75.75 0 01.6 0A60.65 60.65 0 0122.83 8.72a.75.75 0 01-.231 1.337 49.949 49.949 0 00-9.902 3.912l-.003.002-.34.18a.75.75 0 01-.707 0A50.009 50.009 0 007.5 12.174v-.224c0-.131.067-.248.172-.311a54.614 54.614 0 014.653-2.52.75.75 0 00-.65-1.352 56.129 56.129 0 00-4.78 2.589 1.858 1.858 0 00-.859 1.228 49.803 49.803 0 00-4.634-1.527.75.75 0 01-.231-1.337A60.653 60.653 0 0111.7 2.805z" />
  <path d="M13.06 15.473a48.45 48.45 0 017.666-3.282c.134 1.414.22 2.843.255 4.285a.75.75 0 01-.46.71 47.878 47.878 0 00-8.105 4.342.75.75 0 01-.832 0 47.877 47.877 0 00-8.104-4.342.75.75 0 01-.461-.71c.035-1.442.121-2.87.255-4.286A48.4 48.4 0 016 13.18v1.27a1.5 1.5 0 00-.14 2.508c-.09.38-.222.753-.397 1.11.452.213.901.434 1.346.661a6.729 6.729 0 00.551-1.608 1.5 1.5 0 00.14-2.67v-.645a48.549 48.549 0 013.44 1.668 2.25 2.25 0 002.12 0z" />
  <path d="M4.462 19.462c.42-.419.753-.89 1-1.394.453.213.902.434 1.347.661a6.743 6.743 0 01-1.286 1.794.75.75 0 11-1.06-1.06z" />
</svg>
