<svg width="504" height="551" viewBox="0 0 504 551" fill="none" xmlns="http://www.w3.org/2000/svg">
<g clip-path="url(#clip0_201_24)" filter="url(#filter0_d_201_24)">
<path d="M247.634 121.645C230.212 111.899 212.822 102.285 195.441 92.6747C175.917 81.8798 156.403 71.0911 136.87 60.1307C161.572 46.0971 186.29 32.0948 211.026 18.1237C222.783 11.4898 234.994 5.95898 247.873 4.26684C248.062 25.458 248 55.1685 247.885 80.2254C247.824 93.6058 247.748 105.652 247.687 114.352C247.667 117.152 247.649 119.605 247.634 121.645Z" fill="white" stroke="black" stroke-width="8"/>
<path d="M296.709 20.1662C320.13 33.3774 343.523 46.6394 366.888 59.9519C354.991 66.5509 343.06 73.1758 331.117 79.8078C305.905 93.8082 280.636 107.84 255.495 121.727C255.403 103.615 255.523 85.4468 255.644 67.249C255.65 66.2515 255.657 65.254 255.664 64.2563C255.796 44.2146 255.914 24.1408 255.732 4.12261C270.136 5.76256 283.41 12.695 296.709 20.1662Z" fill="white" stroke="black" stroke-width="8"/>
<path d="M132 131.974L132 131.953L132 131.931C131.945 120.103 132.137 102.176 132.343 87.1825C132.446 79.6909 132.553 72.9404 132.634 68.0627C132.641 67.643 132.647 67.237 132.654 66.8457L243.533 128.486L131.913 193.695C131.913 193.511 131.913 193.325 131.913 193.136C131.909 188.481 131.906 182.037 131.908 174.878C131.91 160.558 131.93 143.391 132 131.974Z" fill="white" stroke="black" stroke-width="8"/>
<path d="M371.518 145.381C371.529 159.565 371.54 173.748 371.54 187.927C371.514 189.501 371.492 191.68 371.475 193.789L259.714 128.543C261.748 127.417 264.237 126.04 267.101 124.455C275.484 119.816 287.089 113.393 299.976 106.26C323.483 93.247 351.257 77.8671 371.526 66.628C371.477 92.8787 371.497 119.133 371.518 145.381Z" fill="white" stroke="black" stroke-width="8"/>
<path d="M379.39 67.2069V67.064C402.134 80.0469 424.757 93.249 447.394 106.459C449.894 107.918 452.394 109.376 454.894 110.835L454.923 110.852L454.952 110.868C466.995 117.629 478.638 124.556 485.565 135.246C466.479 145.812 439.572 160.698 416.901 173.239C404.84 179.91 393.978 185.918 386.132 190.258L379.364 194.001C379.362 191.842 379.367 189.617 379.39 188.048L379.39 188.019V187.99V187.74V187.491V187.241V186.992V186.742V186.493V186.243V185.993V185.744V185.494V185.245V184.995V184.746V184.496V184.246V183.997V183.747V183.498V183.248V182.999V182.749V182.499V182.25V182V181.751V181.501V181.252V181.002V180.753V180.503V180.253V180.004V179.754V179.505V179.255V179.006V178.756V178.506V178.257V178.007V177.758V177.508V177.259V177.009V176.759V176.51V176.26V176.011V175.761V175.512V175.262V175.012V174.763V174.513V174.264V174.014V173.765V173.515V173.266V173.016V172.766V172.517V172.267V172.018V171.768V171.519V171.269V171.019V170.77V170.52V170.271V170.021V169.772V169.522V169.272V169.023V168.773V168.524V168.274V168.025V167.775V167.526V167.276V167.026V166.777V166.527V166.278V166.028V165.779V165.529V165.279V165.03V164.78V164.531V164.281V164.032V163.782V163.533V163.283V163.033V162.784V162.534V162.285V162.035V161.786V161.536V161.286V161.037V160.787V160.538V160.288V160.039V159.789V159.54V159.29V159.04V158.791V158.541V158.292V158.042V157.793V157.543V157.293V157.044V156.794V156.545V156.295V156.046V155.796V155.547V155.297V155.047V154.798V154.548V154.299V154.049V153.8V153.55V153.3V153.051V152.801V152.552V152.302V152.053V151.803V151.554V151.304V151.054V150.805V150.555V150.306V150.056V149.807V149.557V149.308V149.058V148.808V148.559V148.309V148.06V147.81V147.561V147.311V147.062V146.812V146.562V146.313V146.063V145.814V145.564V145.315V145.065V144.816V144.566V144.316V144.067V143.817V143.568V143.318V143.069V142.819V142.569V142.32V142.07V141.821V141.571V141.322V141.072V140.823V140.573V140.323V140.074V139.824V139.575V139.325V139.076V138.826V138.577V138.327V138.077V137.828V137.578V137.329V137.079V136.83V136.58V136.331V136.081V135.831V135.582V135.332V135.083V134.833V134.584V134.334V134.085V133.835V133.586V133.336V133.086V132.837V132.587V132.338V132.088V131.839V131.589V131.34V131.09V130.84V130.591V130.341V130.092V129.842V129.593V129.343V129.094V128.844V128.594V128.345V128.095V127.846V127.596V127.347V127.097V126.848V126.598V126.348V126.099V125.849V125.6V125.35V125.101V124.851V124.602V124.352V124.103V123.853V123.603V123.354V123.104V122.855V122.605V122.356V122.106V121.857V121.607V121.357V121.108V120.858V120.609V120.359V120.11V119.86V119.611V119.361V119.112V118.862V118.612V118.363V118.113V117.864V117.614V117.365V117.115V116.866V116.616V116.366V116.117V115.867V115.618V115.368V115.119V114.869V114.62V114.37V114.121V113.871V113.621V113.372V113.122V112.873V112.623V112.374V112.124V111.875V111.625V111.376V111.126V110.876V110.627V110.377V110.128V109.878V109.629V109.379V109.13V108.88V108.631V108.381V108.131V107.882V107.632V107.383V107.133V106.884V106.634V106.385V106.135V105.886V105.636V105.386V105.137V104.887V104.638V104.388V104.139V103.889V103.64V103.39V103.141V102.891V102.641V102.392V102.142V101.893V101.643V101.394V101.144V100.895V100.645V100.396V100.146V99.8965V99.6469V99.3974V99.1478V98.8983V98.6487V98.3992V98.1497V97.9001V97.6506V97.401V97.1515V96.9019V96.6524V96.4029V96.1533V95.9038V95.6542V95.4047V95.1551V94.9056V94.6561V94.4065V94.157V93.9074V93.6579V93.4084V93.1588V92.9093V92.6597V92.4102V92.1607V91.9111V91.6616V91.412V91.1625V90.9129V90.6634V90.4139V90.1643V89.9148V89.6652V89.4157V89.1662V88.9166V88.6671V88.4175V88.168V87.9185V87.6689V87.4194V87.1698V86.9203V86.6708V86.4212V86.1717V85.9221V85.6726V85.4231V85.1735V84.924V84.6745V84.4249V84.1754V83.9258V83.6763V83.4268V83.1772V82.9277V82.6781V82.4286V82.1791V81.9295V81.68V81.4305V81.1809V80.9314V80.6818V80.4323V80.1828V79.9332V79.6837V79.4342V79.1846V78.9351V78.6855V78.436V78.1865V77.9369V77.6874V77.4379V77.1883V76.9388V76.6893V76.4397V76.1902V75.9406V75.6911V75.4416V75.192V74.9425V74.693V74.4434V74.1939V73.9444V73.6948V73.4453V73.1958V72.9462V72.6967V72.4471V72.1976V71.9481V71.6985V71.449V71.1995V70.9499V70.7004V70.4509V70.2013V69.9518V69.7023V69.4527V69.2032V68.9537V68.7041V68.4546V68.2051V67.9555V67.706V67.4565V67.2069Z" fill="white" stroke="black" stroke-width="8"/>
<path d="M52.4657 108.484L52.4926 108.468L52.5192 108.453C65.3255 100.964 84.8575 89.7527 101.199 80.4073C109.368 75.736 116.735 71.5333 122.06 68.4983C122.99 67.9685 123.857 67.4743 124.656 67.0194L124.033 193.905C122.165 192.875 119.9 191.626 117.302 190.193C109.485 185.882 98.6641 179.913 86.6463 173.282C64.1005 160.84 37.346 146.068 18.3175 135.533C26.3259 123.739 39.2075 115.965 52.4657 108.484Z" fill="white" stroke="black" stroke-width="8"/>
<path d="M313.795 229.857L313.755 229.879L313.715 229.901C303.161 235.893 287.151 244.841 273.771 252.296C267.082 256.022 261.054 259.374 256.699 261.794C254.552 262.986 252.812 263.953 251.599 264.626L136.025 200.568L251.501 133.073L367.208 200.641C367.088 200.707 366.967 200.773 366.845 200.841C362.802 203.069 357.206 206.15 350.991 209.564C338.558 216.395 323.668 224.547 313.795 229.857Z" fill="white" stroke="black" stroke-width="8"/>
<path d="M119.792 200.743C100.675 211.817 81.493 223.021 62.3162 234.222C44.1866 244.811 26.0614 255.398 8 265.87V265.797V265.641V265.485V265.329V265.173V265.017V264.861V264.706V264.55V264.394V264.238V264.082V263.926V263.77V263.615V263.459V263.303V263.147V262.991V262.835V262.68V262.524V262.368V262.212V262.056V261.9V261.744V261.589V261.433V261.277V261.121V260.965V260.809V260.654V260.498V260.342V260.186V260.03V259.874V259.718V259.563V259.407V259.251V259.095V258.939V258.783V258.628V258.472V258.316V258.16V258.004V257.848V257.692V257.537V257.381V257.225V257.069V256.913V256.757V256.602V256.446V256.29V256.134V255.978V255.822V255.666V255.511V255.355V255.199V255.043V254.887V254.731V254.576V254.42V254.264V254.108V253.952V253.796V253.64V253.485V253.329V253.173V253.017V252.861V252.705V252.55V252.394V252.238V252.082V251.926V251.77V251.614V251.459V251.303V251.147V250.991V250.835V250.679V250.524V250.368V250.212V250.056V249.9V249.744V249.589V249.433V249.277V249.121V248.965V248.809V248.653V248.498V248.342V248.186V248.03V247.874V247.718V247.563V247.407V247.251V247.095V246.939V246.783V246.627V246.472V246.316V246.16V246.004V245.848V245.692V245.537V245.381V245.225V245.069V244.913V244.757V244.601V244.446V244.29V244.134V243.978V243.822V243.666V243.51V243.355V243.199V243.043V242.887V242.731V242.575V242.42V242.264V242.108V241.952V241.796V241.64V241.484V241.329V241.173V241.017V240.861V240.705V240.549V240.394V240.238V240.082V239.926V239.77V239.614V239.458V239.303V239.147V238.991V238.835V238.679V238.523V238.367V238.212V238.056V237.9V237.744V237.588V237.432V237.276V237.121V236.965V236.809V236.653V236.497V236.341V236.186V236.03V235.874V235.718V235.562V235.406V235.25V235.095V234.939V234.783V234.627V234.471V234.315V234.159V234.004V233.848V233.692V233.536V233.38V233.224V233.068V232.912V232.757V232.601V232.445V232.289V232.133V231.977V231.821V231.666V231.51V231.354V231.198V231.042V230.886V230.73V230.575V230.419V230.263V230.107V229.951V229.795V229.639V229.484V229.328V229.172V229.016V228.86V228.704V228.548V228.392V228.237V228.081V227.925V227.769V227.613V227.457V227.301V227.146V226.99V226.834V226.678V226.522V226.366V226.21V226.054V225.899V225.743V225.587V225.431V225.275V225.119V224.963V224.807V224.652V224.496V224.34V224.184V224.028V223.872V223.716V223.56V223.405V223.249V223.093V222.937V222.781V222.625V222.469V222.313V222.158V222.002V221.846V221.69V221.534V221.378V221.222V221.066V220.911V220.755V220.599V220.443V220.287V220.131V219.975V219.819V219.663V219.508V219.352V219.196V219.04V218.884V218.728V218.572V218.416V218.26V218.105V217.949V217.793V217.637V217.481V217.325V217.169V217.013V216.857V216.702V216.546V216.39V216.234V216.078V215.922V215.766V215.61V215.454V215.299V215.143V214.987V214.831V214.675V214.519V214.363V214.207V214.051V213.895V213.74V213.584V213.428V213.272V213.116V212.96V212.804V212.648V212.492V212.336V212.18V212.025V211.869V211.713V211.557V211.401V211.245V211.089V210.933V210.777V210.621V210.465V210.31V210.154V209.998V209.842V209.686V209.53V209.374V209.218V209.062V208.906V208.75V208.595V208.439V208.283V208.127V207.971V207.815V207.659V207.503V207.347V207.191V207.035V206.879V206.723V206.568V206.412V206.256V206.1V205.944V205.788V205.632V205.476V205.32V205.164V205.008V204.852V204.696V204.541V204.385V204.229V204.073V203.917V203.761V203.605V203.449V203.293V203.137V202.981V202.825V202.669V202.513V202.357V202.201V202.046V201.89V201.734V201.578V201.422V201.266V201.11V200.954V200.798V200.642V200.486V200.33V200.174V200.018V199.862V199.706V199.55V199.394V199.239V199.083V198.927V198.771V198.615V198.459V198.303V198.147V197.991V197.835V197.679V197.523V197.367V197.211V197.055V196.899V196.743V196.587V196.431V196.275V196.119V195.963V195.807V195.652V195.496V195.34V195.184V195.028V194.872V194.716V194.56V194.404V194.248V194.092V193.936V193.78V193.624V193.468V193.312V193.156V193.012C8.00454 192.234 8.00847 191.456 8.0124 190.679C8.09771 173.805 8.18184 157.164 14.452 142.562C33.5012 153.098 60.2225 167.856 82.7341 180.285C94.7455 186.917 105.559 192.887 113.369 197.198L119.792 200.743Z" fill="white" stroke="black" stroke-width="8"/>
<path d="M495.29 182.96V266.104L383.504 200.853L390.021 197.247C397.866 192.907 408.725 186.898 420.784 180.226C443.403 167.711 470.243 152.862 489.321 142.309C494.765 154.629 495.669 168.735 495.291 182.853L495.29 182.906V182.96Z" fill="white" stroke="black" stroke-width="8"/>
<path d="M247.65 375.968L247.65 375.999L247.651 376.031C247.75 381.623 247.732 390.107 247.69 397.225C247.677 399.439 247.661 401.517 247.646 403.327C229.154 393.108 210.702 382.851 192.244 372.591L191.727 372.304C171.81 361.233 151.887 350.159 131.91 339.13V207.39C135.264 209.237 139.892 211.795 145.385 214.835C156.985 221.256 172.435 229.825 187.88 238.397C203.325 246.97 218.764 255.544 230.342 261.976C236.131 265.192 240.955 267.872 244.331 269.748L247.58 271.553L247.58 272.349C247.58 274.378 247.58 277.316 247.581 280.95C247.582 288.219 247.584 298.277 247.589 309.43C247.597 331.736 247.615 358.429 247.65 375.968Z" fill="white" stroke="black" stroke-width="8"/>
<path d="M70.8666 305.497C51.2217 294.581 31.543 283.645 11.809 272.9C28.0768 263.447 44.3033 253.971 60.5235 244.499C81.6286 232.174 102.723 219.855 123.884 207.599C123.852 250.036 123.852 292.467 123.885 334.892C121.919 333.858 119.983 332.752 117.983 331.611C115.952 330.452 113.856 329.256 111.6 328.06C98.0338 320.595 84.4583 313.051 70.8666 305.497Z" fill="white" stroke="black" stroke-width="8"/>
<path d="M255.637 403.229C255.652 401.452 255.667 399.427 255.68 397.273C255.722 390.173 255.74 381.623 255.64 375.925C255.64 358.387 255.623 331.717 255.605 309.426C255.596 298.272 255.588 288.215 255.581 280.946L255.573 272.345L255.572 271.558L371.39 207.541V286.926C371.336 294.506 371.404 301.966 371.471 309.386C371.561 319.353 371.65 329.247 371.444 339.263C350.858 350.47 321.055 366.935 296.087 380.771C283.184 387.922 271.568 394.373 263.179 399.036C260.242 400.669 257.7 402.082 255.637 403.229Z" fill="white" stroke="black" stroke-width="8"/>
<path d="M379.4 286.94V207.724C382.74 209.67 387.315 212.335 392.733 215.491C404.346 222.256 419.831 231.279 435.315 240.307C450.8 249.335 466.284 258.367 477.896 265.153C483.315 268.32 487.889 270.997 491.226 272.955C470.936 284.199 443.338 299.483 419.959 312.428C407.048 319.577 395.424 326.012 387.028 330.661L379.527 334.813C379.631 326.239 379.555 317.617 379.479 309.041C379.413 301.629 379.348 294.251 379.4 286.968L379.4 286.954V286.94Z" fill="white" stroke="black" stroke-width="8"/>
<path d="M8 352V279.942C27.0958 290.358 46.0923 300.916 65.1055 311.483C79.3023 319.374 93.5084 327.269 107.772 335.115L107.8 335.13L107.828 335.145C109.618 336.093 111.491 337.16 113.424 338.262C115.455 339.419 117.553 340.614 119.694 341.751C84.9542 362.019 50.2029 382.294 15.4404 402.578C13.059 397.904 11.613 392.587 10.4482 386.995C8.14984 375.641 8 364.018 8 352Z" fill="white" stroke="black" stroke-width="8"/>
<path d="M383.475 341.757L390.877 337.66C399.276 333.012 410.904 326.576 423.819 319.427C447.274 306.444 474.973 291.107 495.283 279.853C495.307 296.022 495.295 312.188 495.283 328.359C495.277 337.577 495.27 346.797 495.27 356.02V356.065L495.271 356.11C495.641 372.497 495.15 388.902 488.183 402.75C470.857 392.625 444.424 377.228 421.722 364.013C409.568 356.938 398.483 350.488 390.436 345.806C387.754 344.246 385.409 342.882 383.475 341.757Z" fill="white" stroke="black" stroke-width="8"/>
<path d="M49.3652 432.705C38.081 426.04 27.2346 419.054 19.7641 409.267C54.4984 388.988 89.2326 368.735 123.967 348.507C123.879 369.604 123.897 390.699 123.916 411.782L123.917 412.39C123.936 433.333 123.955 454.264 123.871 475.188C98.9757 461.13 74.1404 446.969 49.3652 432.705Z" fill="white" stroke="black" stroke-width="8"/>
<path d="M131.916 411.775C131.897 390.605 131.879 369.446 131.968 348.29C150.625 358.6 169.241 368.947 187.86 379.296L188.384 379.587C206.738 389.789 225.096 399.993 243.494 410.162C223.199 421.983 195.631 438.027 172.282 451.606C159.391 459.103 147.786 465.847 139.401 470.714C136.47 472.416 133.932 473.888 131.872 475.082C131.955 454.182 131.936 433.282 131.917 412.392L131.916 411.775Z" fill="white" stroke="black" stroke-width="8"/>
<path d="M259.658 410.155C261.692 409.025 264.179 407.642 267.044 406.05C275.414 401.401 287.003 394.967 299.879 387.833C323.354 374.825 351.097 359.491 371.414 348.384C371.439 363.774 371.418 379.181 371.397 394.595C371.359 421.543 371.322 448.514 371.532 475.46C353.327 464.639 334.992 453.979 316.676 443.329C304.021 435.971 291.375 428.619 278.787 421.221L278.763 421.207L278.738 421.193C274.627 418.854 268.348 415.213 263.084 412.15C261.875 411.446 260.72 410.774 259.658 410.155Z" fill="white" stroke="black" stroke-width="8"/>
<path d="M379.397 394.641C379.418 379.353 379.439 364.059 379.415 348.75C387.535 353.54 402.47 362.219 419.101 371.871C424.715 375.129 430.539 378.507 436.387 381.899C453.692 391.936 471.201 402.092 484.063 409.594C479.701 415.48 473.655 420.239 467.144 424.813C458.292 430.764 449.077 435.985 439.713 441.29C436.001 443.393 432.265 445.51 428.519 447.69C422.703 450.978 416.912 454.28 411.129 457.576C400.603 463.577 390.104 469.562 379.532 475.421C379.322 448.489 379.359 421.575 379.397 394.641Z" fill="white" stroke="black" stroke-width="8"/>
<path d="M135.864 481.943C152.884 472.033 169.954 462.13 187.03 452.223C207.226 440.506 227.433 428.783 247.58 417.035V538.311C238.889 536.805 230.205 534.544 223.071 530.451L223.047 530.437L223.022 530.423C214.837 525.877 206.647 521.34 198.457 516.803C177.566 505.23 156.676 493.658 135.864 481.943Z" fill="white" stroke="black" stroke-width="8"/>
<path d="M255.58 538.833V417.037C256.657 417.665 257.83 418.349 259.061 419.065C264.312 422.121 270.608 425.772 274.758 428.133C287.409 435.567 300.074 442.931 312.729 450.288C330.945 460.879 349.141 471.459 367.25 482.222C337.421 498.73 307.594 515.273 277.771 531.852C270.91 535.645 263.363 538.017 255.58 538.833Z" fill="white" stroke="black" stroke-width="8"/>
</g>
<defs>
<filter id="filter0_d_201_24" x="0" y="0" width="503.37" height="551.04" filterUnits="userSpaceOnUse" color-interpolation-filters="sRGB">
<feFlood flood-opacity="0" result="BackgroundImageFix"/>
<feColorMatrix in="SourceAlpha" type="matrix" values="0 0 0 0 0 0 0 0 0 0 0 0 0 0 0 0 0 0 127 0" result="hardAlpha"/>
<feOffset dy="4"/>
<feGaussianBlur stdDeviation="2"/>
<feComposite in2="hardAlpha" operator="out"/>
<feColorMatrix type="matrix" values="0 0 0 0 0 0 0 0 0 0 0 0 0 0 0 0 0 0 0.25 0"/>
<feBlend mode="normal" in2="BackgroundImageFix" result="effect1_dropShadow_201_24"/>
<feBlend mode="normal" in="SourceGraphic" in2="effect1_dropShadow_201_24" result="shape"/>
</filter>
<clipPath id="clip0_201_24">
<rect width="495.37" height="543.04" fill="white" transform="translate(4)"/>
</clipPath>
</defs>
</svg>
