<svg width="504" height="551" viewBox="0 0 504 551" fill="currentColor" xmlns="http://www.w3.org/2000/svg">
<g clip-path="url(#clip0_201_24)" filter="url(#filter0_d_201_24)">
<path d="M250.101 125.891C231.498 115.467 212.875 105.17 194.254 94.8751C173.417 83.3542 152.584 71.8354 131.787 60.1433C157.772 45.3764 183.775 30.6441 209.797 15.9464C222.408 8.83126 235.802 2.81377 250.128 1.5H250.346C250.567 22.8355 250.505 54.0806 250.385 80.2369C250.324 93.6198 250.248 105.668 250.187 114.37C250.156 118.721 250.129 122.235 250.11 124.662C250.107 125.109 250.104 125.519 250.101 125.891Z" fill="currentColor" stroke="black" stroke-width="3"/>
<path d="M371.989 59.9817C358.807 67.2915 345.58 74.6365 332.336 81.9906C305.89 96.676 279.379 111.398 253.021 125.949C252.884 106.426 253.014 86.8398 253.144 67.2382C253.15 66.2388 253.157 65.2393 253.164 64.2399C253.302 43.3122 253.424 22.3714 253.206 1.49998H254.662C270.166 2.91277 284.267 10.3085 297.934 17.9871C322.651 31.9289 347.336 45.9271 371.989 59.9817Z" fill="currentColor" stroke="black" stroke-width="3"/>
<path d="M129.5 131.959L129.5 131.951L129.5 131.943C129.445 120.088 129.637 102.141 129.844 87.1481C129.947 79.6536 130.053 72.9007 130.134 68.0214C130.171 65.8033 130.202 63.9725 130.225 62.6353L248.581 128.432L129.417 198.048C129.416 196.796 129.414 195.131 129.413 193.138C129.409 188.482 129.406 182.037 129.408 174.878C129.41 160.558 129.43 143.384 129.5 131.959Z" fill="currentColor" stroke="black" stroke-width="3"/>
<path d="M374.018 145.375C374.029 159.567 374.04 173.758 374.04 187.948C374.005 190.041 373.978 193.233 373.959 195.898C373.953 196.703 373.948 197.46 373.944 198.126L254.655 128.485L255.975 127.755C258.313 126.461 261.699 124.587 265.891 122.268C274.274 117.629 285.878 111.206 298.765 104.072C323.746 90.2438 353.545 73.7423 374.035 62.3781C373.975 90.0434 373.996 117.71 374.018 145.375Z" fill="currentColor" stroke="black" stroke-width="3"/>
<path d="M376.89 62.9649V62.7609C400.906 76.4359 424.779 90.3671 448.654 104.299C451.154 105.758 453.654 107.217 456.154 108.676L456.165 108.682L456.176 108.688C468.917 115.841 481.944 123.533 489.046 136.176C469.867 146.794 441.696 162.38 418.111 175.426C406.05 182.098 395.188 188.106 387.342 192.446L378.06 197.579L376.876 198.234C376.873 197.553 376.87 196.771 376.867 195.94C376.86 193.265 376.86 190.082 376.89 188.012L376.89 188.001V187.99V187.74V187.491V187.241V186.992V186.742V186.493V186.243V185.993V185.744V185.494V185.245V184.995V184.746V184.496V184.246V183.997V183.747V183.498V183.248V182.999V182.749V182.499V182.25V182V181.751V181.501V181.252V181.002V180.753V180.503V180.253V180.004V179.754V179.505V179.255V179.006V178.756V178.506V178.257V178.007V177.758V177.508V177.259V177.009V176.759V176.51V176.26V176.011V175.761V175.512V175.262V175.012V174.763V174.513V174.264V174.014V173.765V173.515V173.266V173.016V172.766V172.517V172.267V172.018V171.768V171.519V171.269V171.019V170.77V170.52V170.271V170.021V169.772V169.522V169.272V169.023V168.773V168.524V168.274V168.025V167.775V167.526V167.276V167.026V166.777V166.527V166.278V166.028V165.779V165.529V165.279V165.03V164.78V164.531V164.281V164.032V163.782V163.533V163.283V163.033V162.784V162.534V162.285V162.035V161.786V161.536V161.286V161.037V160.787V160.538V160.288V160.039V159.789V159.54V159.29V159.04V158.791V158.541V158.292V158.042V157.793V157.543V157.293V157.044V156.794V156.545V156.295V156.046V155.796V155.547V155.297V155.047V154.798V154.548V154.299V154.049V153.8V153.55V153.3V153.051V152.801V152.552V152.302V152.053V151.803V151.554V151.304V151.054V150.805V150.555V150.306V150.056V149.807V149.557V149.308V149.058V148.808V148.559V148.309V148.06V147.81V147.561V147.311V147.062V146.812V146.562V146.313V146.063V145.814V145.564V145.315V145.065V144.816V144.566V144.316V144.067V143.817V143.568V143.318V143.069V142.819V142.569V142.32V142.07V141.821V141.571V141.322V141.072V140.823V140.573V140.323V140.074V139.824V139.575V139.325V139.076V138.826V138.577V138.327V138.077V137.828V137.578V137.329V137.079V136.83V136.58V136.331V136.081V135.831V135.582V135.332V135.083V134.833V134.584V134.334V134.085V133.835V133.586V133.336V133.086V132.837V132.587V132.338V132.088V131.839V131.589V131.34V131.09V130.84V130.591V130.341V130.092V129.842V129.593V129.343V129.094V128.844V128.594V128.345V128.095V127.846V127.596V127.347V127.097V126.848V126.598V126.348V126.099V125.849V125.6V125.35V125.101V124.851V124.602V124.352V124.103V123.853V123.603V123.354V123.104V122.855V122.605V122.356V122.106V121.857V121.607V121.357V121.108V120.858V120.609V120.359V120.11V119.86V119.611V119.361V119.112V118.862V118.612V118.363V118.113V117.864V117.614V117.365V117.115V116.866V116.616V116.366V116.117V115.867V115.618V115.368V115.119V114.869V114.62V114.37V114.121V113.871V113.621V113.372V113.122V112.873V112.623V112.374V112.124V111.875V111.625V111.376V111.126V110.876V110.627V110.377V110.128V109.878V109.629V109.379V109.13V108.88V108.631V108.381V108.131V107.882V107.632V107.383V107.133V106.884V106.634V106.385V106.135V105.886V105.636V105.386V105.137V104.887V104.638V104.388V104.139V103.889V103.64V103.39V103.141V102.891V102.641V102.392V102.142V101.893V101.643V101.394V101.144V100.895V100.645V100.396V100.146V99.8965V99.6469V99.3974V99.1478V98.8983V98.6487V98.3992V98.1497V97.9001V97.6506V97.401V97.1515V96.9019V96.6524V96.4029V96.1533V95.9038V95.6542V95.4047V95.1551V94.9056V94.6561V94.4065V94.157V93.9074V93.6579V93.4084V93.1588V92.9093V92.6597V92.4102V92.1607V91.9111V91.6616V91.412V91.1625V90.9129V90.6634V90.4139V90.1643V89.9148V89.6652V89.4157V89.1662V88.9166V88.6671V88.4175V88.168V87.9185V87.6689V87.4194V87.1698V86.9203V86.6708V86.4212V86.1717V85.9221V85.6726V85.4231V85.1735V84.924V84.6745V84.4249V84.1754V83.9258V83.6763V83.4268V83.1772V82.9277V82.6781V82.4286V82.1791V81.9295V81.68V81.4305V81.1809V80.9314V80.6818V80.4323V80.1828V79.9332V79.6837V79.4342V79.1846V78.9351V78.6855V78.436V78.1865V77.9369V77.6874V77.4379V77.1883V76.9388V76.6893V76.4397V76.1902V75.9406V75.6911V75.4416V75.192V74.9425V74.693V74.4434V74.1939V73.9444V73.6948V73.4453V73.1958V72.9462V72.6967V72.4471V72.1976V71.9481V71.6985V71.449V71.1995V70.9499V70.7004V70.4509V70.2013V69.9518V69.7023V69.4527V69.2032V68.9537V68.7041V68.4546V68.2051V67.9555V67.706V67.4565V67.2069V66.9574V66.7079V66.4583V66.2088V65.9593V65.7097V65.4602V65.2107V64.9611V64.7116V64.4621V64.2125V63.963V63.7135V63.4639V63.2144V62.9649Z" fill="currentColor" stroke="black" stroke-width="3"/>
<path d="M51.2371 106.306L51.2472 106.301L51.2572 106.295C64.0752 98.7989 83.6169 87.5823 99.9584 78.2371C108.128 73.5651 115.497 69.3617 120.823 66.3263C123.485 64.8087 125.638 63.583 127.124 62.7368L127.177 62.7067L126.512 198.127L125.341 197.481C123.161 196.279 120.003 194.538 116.095 192.382C108.278 188.071 97.4564 182.102 85.4384 175.47C61.9564 162.513 33.9072 147.025 14.7763 136.43C23.0178 122.744 37.2449 114.202 51.2371 106.306Z" fill="currentColor" stroke="black" stroke-width="3"/>
<path d="M314.979 232.059L314.964 232.067L314.949 232.076C304.385 238.072 288.368 247.025 274.987 254.48C268.298 258.207 262.269 261.559 257.913 263.979C255.734 265.19 253.974 266.167 252.759 266.842L251.6 267.485L130.972 200.625L251.5 130.177L372.272 200.703C371.189 201.3 369.759 202.089 368.052 203.03C364.008 205.259 358.411 208.341 352.195 211.755C339.762 218.585 324.863 226.743 314.979 232.059Z" fill="currentColor" stroke="black" stroke-width="3"/>
<path d="M124.871 200.691C104.444 212.51 84.0165 224.442 63.5897 236.373C44.2257 247.684 24.8622 258.994 5.5 270.208V270.16V270.005V269.849V269.693V269.537V269.381V269.225V269.069V268.914V268.758V268.602V268.446V268.29V268.134V267.978V267.823V267.667V267.511V267.355V267.199V267.043V266.887V266.732V266.576V266.42V266.264V266.108V265.952V265.797V265.641V265.485V265.329V265.173V265.017V264.861V264.706V264.55V264.394V264.238V264.082V263.926V263.77V263.615V263.459V263.303V263.147V262.991V262.835V262.68V262.524V262.368V262.212V262.056V261.9V261.744V261.589V261.433V261.277V261.121V260.965V260.809V260.654V260.498V260.342V260.186V260.03V259.874V259.718V259.563V259.407V259.251V259.095V258.939V258.783V258.628V258.472V258.316V258.16V258.004V257.848V257.692V257.537V257.381V257.225V257.069V256.913V256.757V256.602V256.446V256.29V256.134V255.978V255.822V255.666V255.511V255.355V255.199V255.043V254.887V254.731V254.576V254.42V254.264V254.108V253.952V253.796V253.64V253.485V253.329V253.173V253.017V252.861V252.705V252.55V252.394V252.238V252.082V251.926V251.77V251.614V251.459V251.303V251.147V250.991V250.835V250.679V250.524V250.368V250.212V250.056V249.9V249.744V249.589V249.433V249.277V249.121V248.965V248.809V248.653V248.498V248.342V248.186V248.03V247.874V247.718V247.563V247.407V247.251V247.095V246.939V246.783V246.627V246.472V246.316V246.16V246.004V245.848V245.692V245.537V245.381V245.225V245.069V244.913V244.757V244.601V244.446V244.29V244.134V243.978V243.822V243.666V243.51V243.355V243.199V243.043V242.887V242.731V242.575V242.42V242.264V242.108V241.952V241.796V241.64V241.484V241.329V241.173V241.017V240.861V240.705V240.549V240.394V240.238V240.082V239.926V239.77V239.614V239.458V239.303V239.147V238.991V238.835V238.679V238.523V238.367V238.212V238.056V237.9V237.744V237.588V237.432V237.276V237.121V236.965V236.809V236.653V236.497V236.341V236.186V236.03V235.874V235.718V235.562V235.406V235.25V235.095V234.939V234.783V234.627V234.471V234.315V234.159V234.004V233.848V233.692V233.536V233.38V233.224V233.068V232.912V232.757V232.601V232.445V232.289V232.133V231.977V231.821V231.666V231.51V231.354V231.198V231.042V230.886V230.73V230.575V230.419V230.263V230.107V229.951V229.795V229.639V229.484V229.328V229.172V229.016V228.86V228.704V228.548V228.392V228.237V228.081V227.925V227.769V227.613V227.457V227.301V227.146V226.99V226.834V226.678V226.522V226.366V226.21V226.054V225.899V225.743V225.587V225.431V225.275V225.119V224.963V224.807V224.652V224.496V224.34V224.184V224.028V223.872V223.716V223.56V223.405V223.249V223.093V222.937V222.781V222.625V222.469V222.313V222.158V222.002V221.846V221.69V221.534V221.378V221.222V221.066V220.911V220.755V220.599V220.443V220.287V220.131V219.975V219.819V219.663V219.508V219.352V219.196V219.04V218.884V218.728V218.572V218.416V218.26V218.105V217.949V217.793V217.637V217.481V217.325V217.169V217.013V216.857V216.702V216.546V216.39V216.234V216.078V215.922V215.766V215.61V215.454V215.299V215.143V214.987V214.831V214.675V214.519V214.363V214.207V214.051V213.895V213.74V213.584V213.428V213.272V213.116V212.96V212.804V212.648V212.492V212.336V212.18V212.025V211.869V211.713V211.557V211.401V211.245V211.089V210.933V210.777V210.621V210.465V210.31V210.154V209.998V209.842V209.686V209.53V209.374V209.218V209.062V208.906V208.75V208.595V208.439V208.283V208.127V207.971V207.815V207.659V207.503V207.347V207.191V207.035V206.879V206.723V206.568V206.412V206.256V206.1V205.944V205.788V205.632V205.476V205.32V205.164V205.008V204.852V204.696V204.541V204.385V204.229V204.073V203.917V203.761V203.605V203.449V203.293V203.137V202.981V202.825V202.669V202.513V202.357V202.201V202.046V201.89V201.734V201.578V201.422V201.266V201.11V200.954V200.798V200.642V200.486V200.33V200.174V200.018V199.862V199.706V199.55V199.394V199.239V199.083V198.927V198.771V198.615V198.459V198.303V198.147V197.991V197.835V197.679V197.523V197.367V197.211V197.055V196.899V196.743V196.587V196.431V196.275V196.119V195.963V195.807V195.652V195.496V195.34V195.184V195.028V194.872V194.716V194.56V194.404V194.248V194.092V193.936V193.78V193.624V193.468V193.312V193.156V193.004C5.50495 192.157 5.50906 191.308 5.51317 190.459C5.5985 172.834 5.68598 154.766 13.3005 139.068C32.4554 149.664 60.4842 165.145 83.9425 178.097C95.9538 184.729 106.767 190.698 114.577 195.009L123.815 200.108L124.871 200.691Z" fill="currentColor" stroke="black" stroke-width="3"/>
<path d="M497.79 182.96V270.458L378.445 200.795L379.532 200.194L388.811 195.06C396.655 190.719 407.515 184.711 419.574 178.039C443.132 165.004 471.268 149.438 490.446 138.829C497.166 152.266 498.195 167.798 497.79 182.92L497.79 182.94V182.96Z" fill="currentColor" stroke="black" stroke-width="3"/>
<path d="M250.15 375.963L250.15 375.975L250.15 375.987C250.25 381.612 250.232 390.123 250.19 397.24C250.169 400.796 250.141 403.999 250.119 406.314C250.115 406.757 250.111 407.169 250.107 407.543C230.39 396.654 210.72 385.721 191.048 374.787L190.512 374.489C170.166 363.179 149.816 351.869 129.41 340.606V203.164C130.245 203.621 131.305 204.203 132.565 204.896C135.957 206.764 140.795 209.437 146.596 212.648C158.197 219.069 173.648 227.639 189.093 236.212C204.539 244.784 219.978 253.359 231.556 259.791C237.345 263.007 242.169 265.687 245.546 267.563L249.465 269.741L250.08 270.082L250.08 272.349C250.08 274.378 250.08 277.315 250.081 280.95C250.082 288.219 250.084 298.276 250.089 309.429C250.097 331.736 250.115 358.427 250.15 375.963Z" fill="currentColor" stroke="black" stroke-width="3"/>
<path d="M69.6312 307.671C48.7006 296.04 27.7443 284.394 6.70776 272.973C24.2499 262.786 41.7532 252.565 59.2523 242.346C81.6136 229.287 103.968 216.233 126.388 203.262C126.351 248.487 126.351 293.707 126.388 338.92C123.02 337.364 119.823 335.54 116.563 333.682C114.555 332.537 112.523 331.378 110.413 330.26C96.8199 322.78 83.231 315.229 69.6312 307.671Z" fill="currentColor" stroke="black" stroke-width="3"/>
<path d="M253.098 407.503C253.101 407.147 253.105 406.759 253.109 406.342C253.131 404.025 253.159 400.818 253.18 397.258C253.222 390.148 253.24 381.612 253.14 375.947C253.14 358.411 253.123 331.728 253.105 309.428C253.096 298.274 253.088 288.217 253.081 280.948L253.073 272.348L253.071 270.084L373.89 203.303V286.935C373.837 294.423 373.904 301.859 373.97 309.279C374.064 319.775 374.158 330.238 373.912 340.767C353.305 351.974 322.787 368.833 297.299 382.958C284.397 390.108 272.782 396.559 264.393 401.221C260.199 403.553 256.81 405.437 254.471 406.739C253.963 407.022 253.504 407.277 253.098 407.503Z" fill="currentColor" stroke="black" stroke-width="3"/>
<path d="M376.9 286.94V203.375L379.958 205.156C383.345 207.129 388.184 209.948 393.991 213.331C405.605 220.096 421.09 229.119 436.575 238.147C452.059 247.175 467.544 256.208 479.157 262.995C484.964 266.388 489.802 269.22 493.188 271.208C494.412 271.927 495.446 272.535 496.267 273.019C475.723 284.406 446.056 300.835 421.17 314.615C408.259 321.764 396.635 328.2 388.239 332.848L378.307 338.346L376.958 339.093C377.157 329.12 377.068 319.124 376.979 309.149C376.913 301.733 376.848 294.327 376.9 286.951H376.9V286.94Z" fill="currentColor" stroke="black" stroke-width="3"/>
<path d="M5.5 352V275.733C25.8466 286.804 46.0899 298.055 66.3407 309.31C80.5364 317.199 94.7357 325.091 108.977 332.924L108.987 332.93L108.998 332.936C110.933 333.96 112.881 335.071 114.853 336.196C118.133 338.066 121.479 339.974 124.939 341.586C88.1365 363.056 51.3218 384.536 14.4947 406.025C11.1516 400.481 9.36104 394.037 7.99936 387.498C5.64369 375.865 5.5 364.007 5.5 352Z" fill="currentColor" stroke="black" stroke-width="3"/>
<path d="M378.409 341.702L379.732 340.971L389.666 335.473C398.066 330.824 409.693 324.389 422.608 317.24C447.523 303.448 477.228 287.001 497.775 275.614C497.809 293.198 497.796 310.781 497.783 328.366C497.777 337.583 497.77 346.801 497.77 356.02V356.037L497.77 356.054C498.16 373.306 497.647 391.251 489.163 406.218C471.94 396.149 444.169 379.972 420.465 366.174C408.311 359.099 397.226 352.649 389.179 347.967C385.156 345.627 381.892 343.728 379.634 342.415L378.409 341.702Z" fill="currentColor" stroke="black" stroke-width="3"/>
<path d="M48.1054 434.864C36.018 427.725 23.9514 419.966 16.1249 408.496C52.9122 387.018 89.6994 365.569 126.487 344.147C126.376 366.693 126.396 389.239 126.416 411.78L126.417 412.391C126.437 434.753 126.457 457.109 126.353 479.459C100.204 464.707 74.1216 449.843 48.1054 434.864Z" fill="currentColor" stroke="black" stroke-width="3"/>
<path d="M129.416 411.777C129.396 389.203 129.377 366.632 129.487 344.064C149.384 355.049 169.229 366.08 189.075 377.111L189.606 377.406C209.24 388.32 228.876 399.234 248.56 410.105C228.005 422.077 198.384 439.318 173.539 453.767C160.647 461.264 149.042 468.009 140.656 472.877C136.463 475.311 133.075 477.275 130.734 478.629C130.223 478.925 129.761 479.191 129.353 479.427C129.457 457.083 129.437 434.735 129.417 412.391L129.416 411.777Z" fill="currentColor" stroke="black" stroke-width="3"/>
<path d="M254.608 410.102L255.931 409.367C258.265 408.069 261.645 406.19 265.83 403.865C274.201 399.215 285.79 392.781 298.667 385.646C323.597 371.832 353.347 355.391 373.906 344.174C373.943 360.983 373.92 377.801 373.897 394.622C373.857 423.039 373.818 451.466 374.069 479.88C354.62 468.282 335.028 456.891 315.443 445.504C302.785 438.145 290.131 430.787 277.52 423.377L277.511 423.371L277.502 423.366C273.379 421.02 267.09 417.374 261.827 414.311C259.197 412.78 256.824 411.396 255.109 410.395C254.935 410.293 254.768 410.196 254.608 410.102Z" fill="currentColor" stroke="black" stroke-width="3"/>
<path d="M376.897 394.614C376.92 377.865 376.943 361.114 376.907 344.356C383.17 348.109 400.479 358.174 420.356 369.709C425.968 372.966 431.792 376.343 437.639 379.735C456.013 390.392 474.621 401.185 487.651 408.793C482.946 416.148 475.879 421.733 468.56 426.874C459.617 432.887 450.267 438.185 440.863 443.513C437.165 445.608 433.457 447.708 429.764 449.859C423.96 453.139 418.173 456.438 412.39 459.735C400.638 466.435 388.9 473.126 377.067 479.638C376.818 451.295 376.857 422.959 376.897 394.614Z" fill="currentColor" stroke="black" stroke-width="3"/>
<path d="M130.835 481.979C149.118 471.328 167.447 460.694 185.783 450.056C207.228 437.614 228.682 425.168 250.08 412.682V541.256C240.365 539.742 230.155 537.398 221.827 532.619L221.817 532.614L221.808 532.609C213.628 528.066 205.442 523.531 197.254 518.995C175.088 506.716 152.914 494.431 130.835 481.979Z" fill="currentColor" stroke="black" stroke-width="3"/>
<path d="M253.787 541.5H253.08V412.684C253.245 412.78 253.417 412.881 253.597 412.986C255.312 413.987 257.686 415.372 260.318 416.904C265.576 419.964 271.872 423.614 276.009 425.969C288.643 433.393 301.305 440.754 313.962 448.114C333.445 459.441 352.919 470.763 372.271 482.301C341.171 499.509 310.075 516.754 278.982 534.038C271.226 538.327 262.628 540.874 253.787 541.5Z" fill="currentColor" stroke="black" stroke-width="3"/>
</g>
<defs>
<filter id="filter0_d_201_24" x="0" y="0" width="503.37" height="551.04" filterUnits="userSpaceOnUse" color-interpolation-filters="sRGB">
<feFlood flood-opacity="0" result="BackgroundImageFix"/>
<feColorMatrix in="SourceAlpha" type="matrix" values="0 0 0 0 0 0 0 0 0 0 0 0 0 0 0 0 0 0 127 0" result="hardAlpha"/>
<feOffset dy="4"/>
<feGaussianBlur stdDeviation="2"/>
<feComposite in2="hardAlpha" operator="out"/>
<feColorMatrix type="matrix" values="0 0 0 0 0 0 0 0 0 0 0 0 0 0 0 0 0 0 0.25 0"/>
<feBlend mode="normal" in2="BackgroundImageFix" result="effect1_dropShadow_201_24"/>
<feBlend mode="normal" in="SourceGraphic" in2="effect1_dropShadow_201_24" result="shape"/>
</filter>
<clipPath id="clip0_201_24">
<rect width="495.37" height="543.04" fill="currentColor" transform="translate(4)"/>
</clipPath>
</defs>
</svg>
